<svg width="1920" height="1165" viewBox="0 0 1920 1165" fill="none" xmlns="http://www.w3.org/2000/svg">
<rect width="1920" height="1165" fill="#D797FF"/>
<path d="M615.391 694V676.281L638.312 672.344V511.047L615.391 507.109V489.25H688.938V507.109L666.016 511.047V581.781H763.891V511.047L740.969 507.109V489.25H814.516V507.109L791.594 511.047V672.344L814.516 676.281V694H740.969V676.281L763.891 672.344V603.578H666.016V672.344L688.938 676.281V694H615.391ZM905.641 696.953C891.578 696.953 879.344 693.766 868.938 687.391C858.531 680.922 850.469 671.969 844.75 660.531C839.125 649.094 836.312 635.875 836.312 620.875V614.688C836.312 600.25 839.266 587.359 845.172 576.016C851.172 564.578 859.094 555.578 868.938 549.016C878.875 542.359 889.703 539.031 901.422 539.031C921.859 539.031 937.328 545.219 947.828 557.594C958.422 569.969 963.719 586.469 963.719 607.094V624.391H865L864.578 625.094C864.859 639.719 868.562 651.766 875.688 661.234C882.812 670.609 892.797 675.297 905.641 675.297C915.016 675.297 923.219 673.984 930.25 671.359C937.375 668.641 943.516 664.938 948.672 660.25L959.5 678.25C954.062 683.5 946.844 687.953 937.844 691.609C928.938 695.172 918.203 696.953 905.641 696.953ZM865.844 602.734H936.016V599.078C936.016 588.203 933.109 579.109 927.297 571.797C921.484 564.484 912.859 560.828 901.422 560.828C892.141 560.828 884.219 564.766 877.656 572.641C871.094 580.422 867.062 590.219 865.562 602.031L865.844 602.734ZM983.969 694V676.281L1006.89 672.344V496.422L983.969 492.484V474.625H1034.59V672.344L1057.52 676.281V694H983.969ZM1075.94 694V676.281L1098.86 672.344V496.422L1075.94 492.484V474.625H1126.56V672.344L1149.48 676.281V694H1075.94ZM1235.27 696.953C1221.2 696.953 1209.06 693.672 1198.84 687.109C1188.72 680.453 1180.89 671.312 1175.36 659.688C1169.83 647.969 1167.06 634.609 1167.06 619.609V616.516C1167.06 601.516 1169.83 588.203 1175.36 576.578C1180.89 564.859 1188.72 555.672 1198.84 549.016C1209.06 542.359 1221.11 539.031 1234.98 539.031C1249.05 539.031 1261.14 542.359 1271.27 549.016C1281.48 555.672 1289.36 564.812 1294.89 576.438C1300.42 588.062 1303.19 601.422 1303.19 616.516V619.609C1303.19 634.703 1300.42 648.109 1294.89 659.828C1289.36 671.453 1281.53 680.547 1271.41 687.109C1261.28 693.672 1249.23 696.953 1235.27 696.953ZM1235.27 675.297C1248.39 675.297 1258.38 670.047 1265.22 659.547C1272.06 649.047 1275.48 635.734 1275.48 619.609V616.516C1275.48 605.828 1273.94 596.312 1270.84 587.969C1267.84 579.531 1263.34 572.922 1257.34 568.141C1251.34 563.266 1243.89 560.828 1234.98 560.828C1226.17 560.828 1218.77 563.266 1212.77 568.141C1206.77 572.922 1202.27 579.531 1199.27 587.969C1196.27 596.312 1194.77 605.828 1194.77 616.516V619.609C1194.77 635.734 1198.14 649.047 1204.89 659.547C1211.73 670.047 1221.86 675.297 1235.27 675.297Z" fill="white"/>
</svg>
