<svg width="544" height="300" viewBox="0 0 544 300" fill="none" xmlns="http://www.w3.org/2000/svg">
<rect width="544" height="300" fill="#D797FF"/>
<path d="M204.531 180V176.062L209.625 175.188V139.344L204.531 138.469V134.5H220.875V138.469L215.781 139.344V155.062H237.531V139.344L232.438 138.469V134.5H248.781V138.469L243.688 139.344V175.188L248.781 176.062V180H232.438V176.062L237.531 175.188V159.906H215.781V175.188L220.875 176.062V180H204.531ZM253.406 180V176.062L258.5 175.188V151.031L253.406 150.156V146.188H264.656V175.188L269.75 176.062V180H253.406ZM258.188 137.844V131.25H264.656V137.844H258.188ZM292.094 165.062V134.5H298.25V165.062H292.094ZM292.094 180V173.625H298.25V180H292.094ZM307.219 165.062V134.5H313.375V165.062H307.219ZM307.219 180V173.625H313.375V180H307.219ZM322.344 165.062V134.5H328.5V165.062H322.344ZM322.344 180V173.625H328.5V180H322.344Z" fill="white"/>
</svg>
