<svg width="101" height="137" viewBox="0 0 101 137" fill="none" xmlns="http://www.w3.org/2000/svg">
<path d="M11.7344 0.8125L26.5 40.0469L41.2305 0.8125H52.7266V52H43.8672V35.125L44.7461 12.5547L29.6289 52H23.2656L8.18359 12.5898L9.0625 35.125V52H0.203125V0.8125H11.7344ZM100.715 0.8125V35.0195C100.715 40.457 98.9688 44.7695 95.4766 47.957C92.0078 51.1211 87.3789 52.7031 81.5898 52.7031C75.7305 52.7031 71.0781 51.1445 67.6328 48.0273C64.1875 44.8867 62.4648 40.5391 62.4648 34.9844V0.8125H71.3242V35.0547C71.3242 38.4766 72.1914 41.0898 73.9258 42.8945C75.6602 44.6992 78.2148 45.6016 81.5898 45.6016C88.4336 45.6016 91.8555 41.9922 91.8555 34.7734V0.8125H100.715ZM9.09766 128.898H32.3359V136H0.203125V84.8125H9.09766V128.898ZM53.8516 113.887L48.0508 120.039V136H39.1562V84.8125H48.0508V108.824L52.9727 102.742L67.9492 84.8125H78.707L59.6875 107.488L79.7969 136H69.25L53.8516 113.887ZM89.0781 127C90.6719 127 91.9023 127.457 92.7695 128.371C93.6367 129.262 94.0703 130.387 94.0703 131.746C94.0703 133.082 93.6367 134.195 92.7695 135.086C91.9023 135.953 90.6719 136.387 89.0781 136.387C87.5547 136.387 86.3477 135.953 85.457 135.086C84.5664 134.219 84.1211 133.105 84.1211 131.746C84.1211 130.387 84.5547 129.262 85.4219 128.371C86.2891 127.457 87.5078 127 89.0781 127Z" fill="black"/>
</svg>
