<svg width="100" height="102" viewBox="0 0 100 102" fill="none" xmlns="http://www.w3.org/2000/svg">
<rect width="100" height="102" fill="#D797FF"/>
<path d="M36.976 30.648C37.9147 32.2693 38.96 34.2533 40.112 36.6C41.264 38.9467 42.4373 41.4213 43.632 44.024C44.8267 46.584 46 49.208 47.152 51.896C48.3467 54.5413 49.4347 56.9947 50.416 59.256C51.3973 56.9947 52.464 54.5413 53.616 51.896C54.768 49.208 55.9413 46.584 57.136 44.024C58.3307 41.4213 59.504 38.9467 60.656 36.6C61.808 34.2533 62.8533 32.2693 63.792 30.648H71.088C71.472 33.8907 71.8347 37.3467 72.176 41.016C72.5173 44.6427 72.816 48.376 73.072 52.216C73.3707 56.0133 73.6267 59.8533 73.84 63.736C74.096 67.576 74.3093 71.3307 74.48 75H66.544C66.3733 69.8373 66.16 64.5253 65.904 59.064C65.6907 53.6027 65.3493 48.312 64.88 43.192C64.4107 44.1733 63.856 45.3467 63.216 46.712C62.576 48.0773 61.8933 49.5707 61.168 51.192C60.4427 52.7707 59.696 54.4133 58.928 56.12C58.2027 57.8267 57.4773 59.4907 56.752 61.112C56.0693 62.6907 55.4293 64.184 54.832 65.592C54.2347 66.9573 53.7227 68.1307 53.296 69.112H47.28C46.8533 68.1307 46.3413 66.936 45.744 65.528C45.1467 64.12 44.4853 62.6267 43.76 61.048C43.0773 59.4267 42.352 57.7627 41.584 56.056C40.8587 54.3493 40.1333 52.7067 39.408 51.128C38.6827 49.5493 38 48.0773 37.36 46.712C36.72 45.304 36.1653 44.1307 35.696 43.192C35.2267 48.312 34.864 53.6027 34.608 59.064C34.3947 64.5253 34.2027 69.8373 34.032 75H26.096C26.2667 71.3307 26.4587 67.5333 26.672 63.608C26.928 59.6827 27.184 55.8 27.44 51.96C27.7387 48.0773 28.0587 44.3227 28.4 40.696C28.7413 37.0693 29.104 33.72 29.488 30.648H36.976Z" fill="white"/>
</svg>
